#pragma once

/*
 * The following code is derived from:
 * https://github.com/hibit-dev/buzzer/blob/master/LICENSE

 * Original License (MIT License):

 * MIT License

 * Copyright (c) 2022 HiBit

 * Permission is hereby granted, free of charge, to any person obtaining a copy
 * of this software and associated documentation files (the "Software"), to deal
 * in the Software without restriction, including without limitation the rights
 * to use, copy, modify, merge, publish, distribute, sublicense, and/or sell
 * copies of the Software, and to permit persons to whom the Software is
 * furnished to do so, subject to the following conditions:

 * The above copyright notice and this permission notice shall be included in all
 * copies or substantial portions of the Software.

 * THE SOFTWARE IS PROVIDED "AS IS", WITHOUT WARRANTY OF ANY KIND, EXPRESS OR
 * IMPLIED, INCLUDING BUT NOT LIMITED TO THE WARRANTIES OF MERCHANTABILITY,
 * FITNESS FOR A PARTICULAR PURPOSE AND NONINFRINGEMENT. IN NO EVENT SHALL THE
 * AUTHORS OR COPYRIGHT HOLDERS BE LIABLE FOR ANY CLAIM, DAMAGES OR OTHER
 * LIABILITY, WHETHER IN AN ACTION OF CONTRACT, TORT OR OTHERWISE, ARISING FROM,
 * OUT OF OR IN CONNECTION WITH THE SOFTWARE OR THE USE OR OTHER DEALINGS IN THE
 * SOFTWARE.
*/

#include "pitches.h"
#define REST 0

int pink_panther_melody[] = {
  REST, REST, REST, NOTE_DS4, 
  NOTE_E4, REST, NOTE_FS4, NOTE_G4, REST, NOTE_DS4,
  NOTE_E4, NOTE_FS4,  NOTE_G4, NOTE_C5, NOTE_B4, NOTE_E4, NOTE_G4, NOTE_B4,   
  NOTE_AS4, NOTE_A4, NOTE_G4, NOTE_E4, NOTE_D4, 
  NOTE_E4, REST, REST, NOTE_DS4,
  
  NOTE_E4, REST, NOTE_FS4, NOTE_G4, REST, NOTE_DS4,
  NOTE_E4, NOTE_FS4,  NOTE_G4, NOTE_C5, NOTE_B4, NOTE_G4, NOTE_B4, NOTE_E5,
  NOTE_DS5,   
  NOTE_D5, REST, REST, NOTE_DS4, 
  NOTE_E4, REST, NOTE_FS4, NOTE_G4, REST, NOTE_DS4,
  NOTE_E4, NOTE_FS4,  NOTE_G4, NOTE_C5, NOTE_B4, NOTE_E4, NOTE_G4, NOTE_B4,   
  
  NOTE_AS4, NOTE_A4, NOTE_G4, NOTE_E4, NOTE_D4, 
  NOTE_E4, REST,
  REST, NOTE_E5, NOTE_D5, NOTE_B4, NOTE_A4, NOTE_G4, NOTE_E4,
  NOTE_AS4, NOTE_A4, NOTE_AS4, NOTE_A4, NOTE_AS4, NOTE_A4, NOTE_AS4, NOTE_A4,   
  NOTE_G4, NOTE_E4, NOTE_D4, NOTE_E4, NOTE_E4, NOTE_E4
};

int pink_panther_durations[] = {
  2, 4, 8, 8, 
  4, 8, 8, 4, 8, 8,
  8, 8,  8, 8, 8, 8, 8, 8,   
  2, 16, 16, 16, 16, 
  2, 4, 8, 4,
  
  4, 8, 8, 4, 8, 8,
  8, 8,  8, 8, 8, 8, 8, 8,
  1,   
  2, 4, 8, 8, 
  4, 8, 8, 4, 8, 8,
  8, 8,  8, 8, 8, 8, 8, 8,   
  
  2, 16, 16, 16, 16, 
  4, 4,
  4, 8, 8, 8, 8, 8, 8,
  16, 8, 16, 8, 16, 8, 16, 8,   
  16, 16, 16, 16, 16, 2
};

int star_wars_melody[] = {
  NOTE_AS4, NOTE_AS4, NOTE_AS4,
  NOTE_F5, NOTE_C6,
  NOTE_AS5, NOTE_A5, NOTE_G5, NOTE_F6, NOTE_C6,
  NOTE_AS5, NOTE_A5, NOTE_G5, NOTE_F6, NOTE_C6,
  NOTE_AS5, NOTE_A5, NOTE_AS5, NOTE_G5, NOTE_C5, NOTE_C5, NOTE_C5,
  NOTE_F5, NOTE_C6,
  NOTE_AS5, NOTE_A5, NOTE_G5, NOTE_F6, NOTE_C6,

  NOTE_AS5, NOTE_A5, NOTE_G5, NOTE_F6, NOTE_C6,
  NOTE_AS5, NOTE_A5, NOTE_AS5, NOTE_G5, NOTE_C5, NOTE_C5,
  NOTE_D5, NOTE_D5, NOTE_AS5, NOTE_A5, NOTE_G5, NOTE_F5,
  NOTE_F5, NOTE_G5, NOTE_A5, NOTE_G5, NOTE_D5, NOTE_E5, NOTE_C5, NOTE_C5,
  NOTE_D5, NOTE_D5, NOTE_AS5, NOTE_A5, NOTE_G5, NOTE_F5,

  NOTE_C6, NOTE_G5, NOTE_G5, REST, NOTE_C5,
  NOTE_D5, NOTE_D5, NOTE_AS5, NOTE_A5, NOTE_G5, NOTE_F5,
  NOTE_F5, NOTE_G5, NOTE_A5, NOTE_G5, NOTE_D5, NOTE_E5, NOTE_C6, NOTE_C6,
  NOTE_F6, NOTE_DS6, NOTE_CS6, NOTE_C6, NOTE_AS5, NOTE_GS5, NOTE_G5, NOTE_F5,
  NOTE_C6
};

int star_wars_durations[] = {
  8, 8, 8,
  2, 2,
  8, 8, 8, 2, 4,
  8, 8, 8, 2, 4,
  8, 8, 8, 2, 8, 8, 8,
  2, 2,
  8, 8, 8, 2, 4,

  8, 8, 8, 2, 4,
  8, 8, 8, 2, 8, 16,
  4, 8, 8, 8, 8, 8,
  8, 8, 8, 4, 8, 4, 8, 16,
  4, 8, 8, 8, 8, 8,

  8, 16, 2, 8, 8,
  4, 8, 8, 8, 8, 8,
  8, 8, 8, 4, 8, 4, 8, 16,
  4, 8, 4, 8, 4, 8, 4, 8,
  1
};

int christmas_melody[] = {
  NOTE_E5, NOTE_E5, NOTE_E5,
  NOTE_E5, NOTE_E5, NOTE_E5,
  NOTE_E5, NOTE_G5, NOTE_C5, NOTE_D5,
  NOTE_E5,
  NOTE_F5, NOTE_F5, NOTE_F5, NOTE_F5,
  NOTE_F5, NOTE_E5, NOTE_E5, NOTE_E5, NOTE_E5,
  NOTE_E5, NOTE_D5, NOTE_D5, NOTE_E5,
  NOTE_D5, NOTE_G5
};

int christmas_durations[] = {
  8, 8, 4,
  8, 8, 4,
  8, 8, 8, 8,
  2,
  8, 8, 8, 8,
  8, 8, 8, 16, 16,
  8, 8, 8, 8,
  4, 4
};

int pacman_melody[] = {
  NOTE_B4, NOTE_B5, NOTE_FS5, NOTE_DS5,
  NOTE_B5, NOTE_FS5, NOTE_DS5, NOTE_C5,
  NOTE_C6, NOTE_G6, NOTE_E6, NOTE_C6, NOTE_G6, NOTE_E6,
  
  NOTE_B4, NOTE_B5, NOTE_FS5, NOTE_DS5, NOTE_B5,
  NOTE_FS5, NOTE_DS5, NOTE_DS5, NOTE_E5, NOTE_F5,
  NOTE_F5, NOTE_FS5, NOTE_G5, NOTE_G5, NOTE_GS5, NOTE_A5, NOTE_B5
};

int pacman_durations[] = {
  16, 16, 16, 16,
  32, 16, 8, 16,
  16, 16, 16, 32, 16, 8,
  
  16, 16, 16, 16, 32,
  16, 8, 32, 32, 32,
  32, 32, 32, 32, 32, 16, 8
};
